HIERARCHY
ROOT Hips
{
  OFFSET 279.157 85.6768 304.565
  CHANNELS 6 Xposition Yposition Zposition Zrotation Xrotation Yrotation
  JOINT LeftUpLeg
  {
    OFFSET 8.64259 1.95398 -2.38835
    CHANNELS 3 Zrotation Xrotation Yrotation
    JOINT LeftLeg
    {
      OFFSET 43.7702 0 0
      CHANNELS 3 Zrotation Xrotation Yrotation
      JOINT LeftFoot
      {
        OFFSET 40.6238 0 0
        CHANNELS 3 Zrotation Xrotation Yrotation
        JOINT LeftToeBase
        {
          OFFSET 12.7242 0 0
          CHANNELS 3 Zrotation Xrotation Yrotation
          End Site
          {
            OFFSET 0 0 0
          }
        }
      }
    }
  }
  JOINT RightUpLeg
  {
    OFFSET -8.2249 1.95398 -2.59336
    CHANNELS 3 Zrotation Xrotation Yrotation
    JOINT RightLeg
    {
      OFFSET 43.5653 0 0
      CHANNELS 3 Zrotation Xrotation Yrotation
      JOINT RightFoot
      {
        OFFSET 40.6238 0 0
        CHANNELS 3 Zrotation Xrotation Yrotation
        JOINT RightToeBase
        {
          OFFSET 12.7242 0 0
          CHANNELS 3 Zrotation Xrotation Yrotation
          End Site
          {
            OFFSET 0 0 0
          }
        }
      }
    }
  }
  JOINT Spine
  {
    OFFSET 0.165834 0.87714 6.61349
    CHANNELS 3 Zrotation Xrotation Yrotation
    JOINT Spine1
    {
      OFFSET 7.38963 1.71661e-005 0
      CHANNELS 3 Zrotation Xrotation Yrotation
      JOINT Spine2
      {
        OFFSET 11.9445 1.14441e-005 0
        CHANNELS 3 Zrotation Xrotation Yrotation
        JOINT Spine3
        {
          OFFSET 14.7254 4.19617e-005 0
          CHANNELS 3 Zrotation Xrotation Yrotation
          JOINT Spine4
          {
            OFFSET 10.9679 0 0
            CHANNELS 3 Zrotation Xrotation Yrotation
            JOINT RightShoulder
            {
              OFFSET 2.46616 -1.6653 3.69651
              CHANNELS 3 Zrotation Xrotation Yrotation
              JOINT RightArm
              {
                OFFSET 13.0012 0 0
                CHANNELS 3 Zrotation Xrotation Yrotation
                JOINT RightForeArm
                {
                  OFFSET 28.7848 1.52588e-005 0
                  CHANNELS 3 Zrotation Xrotation Yrotation
                  JOINT RightHand
                  {
                    OFFSET 26.5688 1.52588e-005 0
                    CHANNELS 3 Zrotation Xrotation Yrotation
                    End Site
                    {
                      OFFSET 0 0 0
                    }
                  }
                }
              }
            }
            JOINT LeftShoulder
            {
              OFFSET 2.38034 -1.29275 -3.7523
              CHANNELS 3 Zrotation Xrotation Yrotation
              JOINT LeftArm
              {
                OFFSET 16.3182 6.10351e-005 0
                CHANNELS 3 Zrotation Xrotation Yrotation
                JOINT LeftForeArm
                {
                  OFFSET 27.0901 0 0
                  CHANNELS 3 Zrotation Xrotation Yrotation
                  JOINT LeftHand
                  {
                    OFFSET 24.5451 1.52588e-005 0
                    CHANNELS 3 Zrotation Xrotation Yrotation
                    End Site
                    {
                      OFFSET 0 0 0
                    }
                  }
                }
              }
            }
            JOINT Neck
            {
              OFFSET 5.0226 -0.0266342 0
              CHANNELS 3 Zrotation Xrotation Yrotation
              JOINT Head
              {
                OFFSET 6.69364 2.86102e-005 0
                CHANNELS 3 Zrotation Xrotation Yrotation
                End Site
                {
                  OFFSET 0 0 0
                }
              }
            }
          }
        }
      }
    }
  }
}
MOTION
Frames:	15
Frame Time:	0.0416667
-269.203 96.1709 -231.132 -111.111 44.5664 -70.7609 -173.713 14.7522 93.5096 -41.2735 19.449 1.15218 66.5116 5.1492 1.91281 17.8927 -5.04825 -2.48767 168.737 -1.10336 81.0825 -73.3079 -17.1225 -3.41459 63.993 -2.70453 -1.01664 22.1901 1.01512 6.59827 2.05212 7.58863 -90.7572 11.7308 3.7262 -1.90117 0.063531 3.63892 -2.06346 -22.5123 4.12505 -0.691826 -2.49962 4.12505 -0.691828 94.9265 -39.6752 -94.881 0.928086 10.7668 13.0369 -33.7747 -6.00911 -99.1745 -35.8967 1.79023 -17.6704 -81.173 -35.4292 90.9352 -39.9377 28.625 50.4841 40.351 -21.0214 -94.1575 -13.9486 2.99153 -34.0959 17.4866 -6.28751 -0.190369 -8.41916 -6.02798 -0.291993 
-265.971 97.7186 -227.956 -110.679 43.7377 -71.0447 -174.884 13.7597 93.4191 -32.4591 22.6435 1.3133 58.4305 -0.352804 2.14517 18.1846 -4.93381 -2.37346 170.387 -7.80594 84.0478 -65.9379 -20.058 -3.77254 64.827 -3.02242 -1.08262 24.1953 0.405826 6.84209 2.51716 7.41452 -90.6558 12.0909 4.69443 -1.82364 0.426827 4.60963 -2.02882 -22.1757 5.02501 -0.325163 -2.16307 5.02499 -0.325166 94.2642 -34.4757 -97.1323 2.21112 6.86417 16.6307 -35.9327 -3.70584 -99.9806 -34.7884 1.40451 -16.9914 -80.3044 -33.2982 92.3616 -38.5563 26.9159 53.1376 40.3525 -24.1016 -97.8709 -12.7395 2.87642 -36.241 14.4412 -9.09233 -1.5429 -7.78762 -8.41294 -0.644796 
-262.797 99.1631 -224.584 -110.224 43.4947 -72.2608 -175.547 10.7687 92.5462 -18.9895 23.7035 0.835825 48.8668 -6.7237 0.0380784 17.1661 -5.04262 -3.53665 171.617 -12.5951 85.6454 -58.167 -21.3953 -4.19516 67.1672 -4.39351 -1.63047 24.8465 0.13364 7.39351 2.77378 7.33932 -90.4326 12.2401 5.30813 -1.45686 0.578901 5.23886 -1.68965 -22.0437 5.49985 0.21062 -2.03109 5.49984 0.210609 93.8444 -31.1371 -98.7728 4.3946 -0.550244 17.3463 -38.4096 -0.910867 -98.2309 -33.2235 1.0598 -16.359 -79.364 -33.4019 94.133 -32.5455 23.9624 51.5753 38.9072 -24.4022 -100.549 -10.1634 2.18557 -36.9225 12.9582 -10.4949 -2.13997 -9.39468 -9.5916 -1.90329 
-259.059 100.24 -221.23 -106.514 42.8767 -75.5612 -175.86 12.8246 92.0895 -14.1159 22.9802 0.15088 51.1237 -5.49211 -1.67247 11.4074 -11.201 3.50375 172.148 -13.3558 87.5106 -49.7681 -18.0137 -2.85778 70.2462 -5.83514 -0.216009 24.855 -0.000121574 8.20214 2.63789 6.98739 -90.1735 12.9348 5.15432 -0.972797 1.27354 5.10653 -1.19929 -21.3436 5.20772 0.625569 -1.33094 5.20775 0.625563 93.4309 -29.3355 -100.085 8.63045 -8.65396 18.2814 -39.9984 1.01862 -94.9495 -33.1884 1.50284 -17.9339 -80.3888 -33.6405 92.2285 -29.5879 17.7093 51.6998 38.4969 -24.0035 -103.127 -7.85265 1.45658 -35.9106 11.8876 -10.7741 -2.98102 -11.3882 -9.59359 -2.88479 
-254.946 100.468 -217.498 -101.878 41.8997 -79.7361 -176.559 18.3049 91.2595 -18.7576 22.0195 -0.0300906 56.2366 -2.30288 0.166202 11.8999 -11.097 4.04545 171.711 -11.05 88.5572 -43.0133 -13.4095 -0.70416 70.3709 -6.23335 -1.52511 26.705 -0.566782 8.72705 2.41535 6.76356 -89.9501 13.37 4.81644 -0.511401 1.70777 4.78925 -0.723385 -20.8976 4.74694 0.963157 -0.88491 4.74696 0.963146 93.7177 -29.7448 -99.3894 13.6313 -13.0966 20.278 -39.1352 2.5353 -92.7633 -34.659 2.30602 -19.7282 -81.5012 -38.0126 90.5815 -23.344 15.8106 46.2528 37.1069 -22.381 -103.848 -5.26512 0.646988 -32.9707 15.0885 -10.5233 -0.486628 -13.5475 -9.60555 -5.35303 
-250.401 99.7965 -213.495 -98.8696 40.4261 -82.5908 -176.836 22.9667 91.054 -26.7693 21.9758 0.103211 60.008 0.488054 1.68041 14.6586 -8.46612 1.82101 171.938 -6.30179 89.839 -41.5942 -7.49673 0.729578 70.4652 -6.22302 -2.62433 23.1731 0.597348 7.39074 2.12124 6.86945 -89.7976 13.1472 4.30778 -0.127187 1.48338 4.29801 -0.317017 -21.1064 4.14651 1.17565 -1.09372 4.14648 1.17565 93.3019 -33.3465 -99.258 18.4517 -13.9955 22.8707 -37.03 3.11015 -91.3482 -36.4205 2.64417 -19.5244 -82.7528 -42.6075 88.9107 -17.8786 15.2886 36.1212 37.1658 -20.2389 -102.836 -1.13295 -0.364419 -28.9906 22.1882 -10.032 2.24629 -15.9697 -9.58896 -7.09614 
-245.681 98.844 -209.281 -98.4965 40.1673 -83.5112 -175.746 26.9705 91.5505 -40.3174 22.4903 0.0373476 66.8503 4.97259 1.82347 16.8535 -8.0561 4.1332 172.386 -1.74508 90.1904 -41.6447 -6.0802 0.806679 69.8963 -6.25866 -4.30618 20.2623 1.26713 8.08744 1.87198 7.21252 -89.7134 12.4537 3.85584 0.128778 0.788414 3.85776 -0.041312 -21.7888 3.63864 1.28319 -1.77611 3.63866 1.2832 91.5687 -38.4674 -101.087 23.2707 -14.3527 26.0861 -34.688 3.93996 -88.703 -38.6187 2.08897 -16.2627 -85.0276 -47.1254 85.8033 -13.139 14.3846 24.9139 35.5698 -17.031 -100.765 -0.421296 -0.471673 -26.2865 29.5337 -8.82669 3.54945 -18.3126 -8.89605 -6.91488 
-240.885 97.6548 -204.948 -100.382 40.6961 -83.6557 -173.624 28.2901 92.091 -53.1957 22.0586 -0.0368528 70.7734 7.3449 1.01499 20.8827 -5.82482 4.75379 172.765 1.89111 89.2799 -44.0335 -7.70499 -0.389995 70.0166 -6.66153 -5.28138 29.7419 -1.18531 6.97945 1.37841 7.53654 -89.7019 11.8002 2.88136 0.288751 0.13242 2.8913 0.161543 -22.4252 2.66128 1.14196 -2.41251 2.6613 1.14197 90.1195 -40.4147 -103.098 29.9333 -16.3818 29.0522 -34.4948 -1.2477 -78.714 -43.6496 1.48053 -13.6306 -87.1395 -51.1575 83.2099 -8.8295 12.4172 15.2029 34.5582 -15.1592 -99.8006 -0.385791 -0.481045 -26.6865 31.9302 -5.67462 4.36833 -18.61 -6.30917 -6.51796 
-236.339 96.2945 -200.765 -102.546 41.7523 -83.3924 -170.873 28.4095 93.4097 -64.9251 20.9334 0.309466 70.5416 6.94099 0.725508 22.0954 -4.60969 3.25231 173.554 4.94453 88.2404 -47.1675 -9.45879 -2.14085 73.0527 -8.75446 -4.17461 36.0284 -2.79341 5.60209 0.924665 7.84845 -89.6424 11.1734 2.00666 0.515512 -0.496037 2.02737 0.426659 -23.0405 1.75892 1.09491 -3.0278 1.75891 1.0949 92.752 -40.9207 -98.4263 35.9682 -18.9787 29.6876 -38.0195 -10.976 -69.6634 -40.1312 0.91908 -14.5005 -89.7707 -52.1768 79.5202 -4.71994 10.0874 3.12746 34.5402 -14.3655 -99.4043 2.08216 -1.02113 -27.959 32.198 -3.06422 3.47275 -17.3136 -3.71356 -5.05056 
-231.963 94.666 -196.775 -103.832 42.9096 -83.6822 -167.855 27.9102 95.1764 -74.6174 22.9343 0.872733 65.7034 4.66373 4.7423 22.6045 -4.30965 3.18523 174.332 9.2427 87.3393 -51.047 -9.78046 -3.28483 77.0742 -11.2502 -3.31877 33.3845 -2.04779 5.73059 0.256973 8.01597 -89.4503 10.8374 0.765624 1.02151 -0.833678 0.809856 0.986805 -23.3666 0.423251 1.20436 -3.35391 0.423264 1.20436 93.9277 -42.924 -96.0047 38.111 -19.9743 31.8212 -36.8874 -20.606 -61.179 -36.1699 0.00783512 -13.5525 -88.6608 -50.9024 80.9045 -3.45786 4.79253 -11.2057 33.3707 -13.8408 -101.835 -2.26799 -0.114141 -28.0916 30.3283 -0.203023 1.66695 -14.5578 -0.359202 -4.5869 
-228.074 93.7179 -193.028 -102.018 43.4259 -83.7534 -167.501 27.9966 98.7772 -81.5921 22.1788 2.13644 62.1118 2.57031 6.5321 25.1853 -2.25573 1.26162 175.291 15.0066 89.2354 -52.8627 -9.4807 -2.84372 77.8955 -12.033 -4.02176 27.8697 -0.494663 5.91049 -0.438446 7.87772 -89.4588 11.1217 -0.62143 1.13705 -0.549715 -0.570786 1.16329 -23.0829 -0.934412 0.89774 -3.0702 -0.934422 0.897733 96.7644 -42.885 -91.2138 40.0376 -18.8843 33.9948 -34.7099 -29.3135 -53.9969 -32.4053 -0.431179 -13.9384 -86.9303 -47.1884 82.8694 -5.79726 -1.08265 -27.7488 35.6034 -12.3594 -101.609 -0.707493 -0.41302 -26.9814 29.4986 1.62642 -3.40085 -13.0645 3.12616 -2.11185 
-225.015 93.8565 -189.424 -103.241 42.5295 -81.4292 -169.12 22.688 101.98 -84.2901 23.0944 3.86333 59.7914 1.04589 6.13823 24.142 -2.67287 0.652236 175.812 16.9741 90.6269 -51.9192 -8.05559 -2.35526 74.9616 -9.79788 -3.23646 25.3943 0.125563 6.49215 -1.36826 8.00038 -89.5495 10.8866 -2.51584 1.13369 -0.782552 -2.4635 1.24336 -23.3367 -2.74018 0.324659 -3.32407 -2.74017 0.324662 98.8302 -41.1316 -87.8461 41.6822 -18.757 38.4659 -31.4398 -29.9243 -50.7684 -31.8985 -0.0238949 -15.3757 -86.6438 -42.0495 82.3959 -13.4684 -7.25834 -39.9573 39.1501 -10.3612 -101.404 1.49916 -0.817927 -25.6866 27.4738 4.302 -7.20807 -10.7292 6.84279 0.160092 
-222.237 94.6667 -185.593 -106.919 41.8459 -78.297 -170.919 12.9618 102.8 -82.7652 24.5363 5.54129 59.9479 0.653034 2.12216 25.1663 -1.99266 0.217104 176.98 15.9297 91.0194 -48.6486 -8.55669 -2.87234 70.4554 -7.02156 -3.4808 23.2954 0.639003 6.94972 -2.28556 8.35834 -89.6183 10.1837 -4.37993 1.12906 -1.48051 -4.32599 1.32106 -24.0751 -4.51637 -0.242175 -4.06246 -4.51637 -0.242173 101.135 -35.7706 -83.9774 44.4595 -19.4465 41.8799 -32.0337 -28.7602 -51.7406 -30.3366 0.48737 -18.1322 -87.3166 -35.5755 79.8709 -19.6726 -12.3165 -47.037 38.8092 -7.61546 -100.661 2.89888 -1.20193 -28.1664 25.1698 7.81326 -8.00625 -8.34594 10.2729 1.39766 
-219.473 96.2717 -181.087 -107.544 43.2933 -77.6726 -172.591 5.27683 99.7357 -77.6459 27.7941 6.48153 60.6099 0.896788 1.32581 26.5357 -1.09026 -0.42075 179.002 16.1618 90.7869 -41.7365 -11.0301 -4.16656 63.0893 -2.31626 -2.85243 22.0891 1.15959 5.97526 -3.08847 8.22376 -89.6312 10.4723 -5.983 1.26014 -1.18568 -5.92171 1.52311 -23.8319 -6.08415 -0.603048 -3.81923 -6.08414 -0.603055 102.704 -31.5622 -80.969 44.6554 -20.9554 45.0436 -32.9059 -26.125 -53.5402 -28.006 0.847204 -20.5761 -87.2831 -28.1348 78.0251 -23.4586 -15.1851 -50.8098 39.7709 -6.5015 -100.244 1.52046 -0.856887 -26.6686 22.238 11.3001 -9.35 -8.69066 13.7188 4.20866 
-216.825 98.3698 -176.36 -107.255 45.8812 -76.0674 -174.209 -0.418365 96.5722 -70.7565 28.8838 7.20169 61.7949 1.56329 1.55473 27.7427 -0.203831 -1.5346 -179.862 14.2602 91.2688 -28.424 -16.2439 -4.62952 53.8264 3.17634 0.595383 17.8457 2.90312 3.94419 -3.35242 8.25738 -90.1754 10.3815 -6.75889 0.243745 -1.27182 -6.74158 0.542357 -23.9422 -6.5182 -1.80775 -3.92959 -6.5182 -1.80774 105.007 -25.9619 -75.8333 42.47 -19.6725 45.0863 -34.3058 -23.4983 -56.4023 -27.5768 1.13565 -21.977 -86.4191 -23.0343 78.177 -23.0028 -14.7126 -57.0847 40.2219 -3.09426 -94.5542 3.96192 -1.28672 -25.7946 23.7042 14.546 -5.71075 -11.3226 15.6124 4.18209 
